<?xml version="1.0" standalone="no"?>
<!DOCTYPE svg PUBLIC "-//W3C//DTD SVG 1.1//EN" "http://www.w3.org/Graphics/SVG/1.1/DTD/svg11.dtd" >
<svg xmlns="http://www.w3.org/2000/svg">
<metadata>Generated by IcoMoon</metadata>
<defs>
<font id="icomoon" horiz-adv-x="1024">
<font-face units-per-em="1024" ascent="960" descent="-64" />
<missing-glyph horiz-adv-x="1024" />
<glyph unicode="&#x20;" d="" horiz-adv-x="512" />
<glyph unicode="&#xe600;" d="M878.428-32.856l-230.026 230.026c-63-41.284-138.354-65.406-219.688-65.406-221.704 0-400.952 179.704-400.952 401.344 0 221.248 179.248 400.952 400.952 400.952 221.314 0 400.952-179.704 400.952-400.952 0-77.37-21.78-149.472-59.49-210.586l231.652-231.586c12.288-11.962 1.95-41.674-22.626-66.25l-34.524-34.588c-24.64-24.576-54.352-34.85-66.25-22.952zM696.384 533.106c0 147.912-119.76 267.736-267.736 267.736s-268.126-119.76-268.126-267.736 120.15-268.126 268.126-268.126c147.976 0 267.736 120.15 267.736 268.126z" horiz-adv-x="1036" />
<glyph unicode="&#xe601;" d="M512 960c-282.306 0-512-229.682-512-512 0-282.306 229.694-512 512-512s512 229.694 512 512c0 282.318-229.682 512-512 512zM551.822 159.13h-79.644v388.88h79.644v-388.88zM512 624.584c-31.004 0-56.138 25.134-56.138 56.138s25.134 56.138 56.138 56.138 56.138-25.134 56.138-56.138c0-31.004-25.134-56.138-56.138-56.138z" />
<glyph unicode="&#xe602;" d="M591.254 960l591.112-1024h-1182.366l591.254 1024z" horiz-adv-x="1182" />
<glyph unicode="&#xe603;" d="M886.846 448.060l-886.846-512.060v1024l886.846-511.94z" horiz-adv-x="888" />
<glyph unicode="&#xe604;" d="M0 448.060l886.966 511.94v-1024l-886.966 512.062z" horiz-adv-x="888" />
<glyph unicode="&#xe605;" d="M591.254-64l-591.114 1024h1182.366l-591.254-1024z" horiz-adv-x="1182" />
<glyph unicode="&#xe606;" d="M1024.116 251.854l-512.116 508.572-512.116-508.572 115.528-116.34 396.588 393.86 396.588-393.86 115.528 116.34z" />
<glyph unicode="&#xe607;" d="M315.854-64.116l508.572 512.116-508.572 512.116-116.282-115.528 393.86-396.588-393.86-396.588 116.282-115.528z" />
<glyph unicode="&#xe608;" d="M708.146 960.116l-508.572-512.116 508.572-512.116 116.34 115.528-393.86 396.588 393.86 396.588-116.34 115.528z" />
<glyph unicode="&#xe609;" d="M-0.058 644.088l512.116-508.572 512.116 508.572-115.528 116.34-396.588-393.86-396.588 393.86-115.528-116.34z" />
<glyph unicode="&#xe60a;" d="M1000.192 285.824l-488.192 484.864-488.192-484.864 159.488-160.576 328.704 326.528 328.768-326.464 159.424 160.512z" />
<glyph unicode="&#xe60b;" d="M349.888-40.192l484.8 488.192-484.8 488.192-160.576-159.488 326.464-328.704-326.464-328.768 160.576-159.424z" />
<glyph unicode="&#xe60c;" d="M674.176 936.192l-484.864-488.192 484.864-488.192 160.576 159.488-326.464 328.704 326.464 328.768-160.576 159.424z" />
<glyph unicode="&#xe60d;" d="M23.808 610.24l488.192-484.864 488.192 484.864-159.488 160.576-328.64-326.528-328.768 326.464-159.488-160.512z" />
<glyph unicode="&#xe60e;" d="M1024.806 446.452c0-282.126-228.324-510.452-510.452-510.452s-511.906 228.318-511.906 510.452 229.774 510.452 511.906 510.452c282.126 0 510.452-228.318 510.452-510.452zM731.044 577.336c21.812 13.086 36.36 33.45 46.536 56.712-20.364-10.176-43.626-20.358-68.354-24.722-17.448 20.362-43.626 33.448-74.164 33.448-56.716 0-103.254-46.536-103.254-104.702 0-7.276 1.456-16.002 2.91-23.268-87.26 4.36-161.426 45.082-213.776 109.070-8.726-15.998-13.086-33.45-13.086-52.352 0-36.356 15.998-68.354 45.082-85.806-17.452 0-33.45 4.366-46.536 11.638 0-1.454 0-1.454 0-1.454 0-49.442 34.9-91.616 81.442-101.794-7.272-1.456-15.998-2.91-27.628-2.91-5.816 0-11.638 1.45-17.452 2.91 11.638-40.72 49.446-71.26 95.982-72.72-34.9-27.628-79.986-43.626-127.976-43.626-10.18 0-17.452 0-24.724 0 45.082-29.088 100.344-46.54 158.514-46.54 190.508 0 293.762 157.066 293.762 295.218 0 4.36 0 10.176 0 13.086 20.358 14.542 39.264 34.904 52.356 53.808-18.914-7.266-37.82-13.082-59.634-15.992z" />
<glyph unicode="&#xe60f;" d="M743.154 524.204v30.874h-61.784v-30.874zM511.558 960c-282.524 0-511.558-229.228-511.558-512s229.032-512 511.558-512c282.524 0 511.568 229.228 511.568 512s-229.044 512-511.568 512zM310.858 206.87l56.89 185.26h303.108l7.242-23.578 49.61-161.682h-416.852zM789.462 368.962h-77.184l-15.444 54.056h-355.096l-15.44-54.050h-92.634v231.604h138.93v154.366h277.91v-154.366h138.958v-231.61z" />
<glyph unicode="&#xe610;" d="M2.456 448.774c0 282.126 228.318 510.456 510.452 510.456s511.906-228.324 511.906-510.456c0-282.126-229.78-511.906-511.906-511.906s-510.452 229.784-510.452 511.906zM313.666 681.464c0-30.538 24.724-55.262 55.262-55.262s55.262 24.722 55.262 55.262-24.724 56.712-55.262 56.712c-30.538 0-55.262-26.174-55.262-56.712zM414.012 592.748h-90.166v-312.666h90.168v312.666zM457.638 280.082h90.166v200.692c0 0 37.81 36.356 72.714 15.998 7.27-2.904 15.996-17.448 15.996-26.174v-190.514h88.712v190.51c0 40.716-24.722 84.346-61.078 104.708-33.448 17.448-81.442 20.358-116.34 2.91v14.538h-90.172v-312.664z" />
<glyph unicode="&#xe611;" d="M2.456 446.452c0 282.126 228.318 511.906 510.452 511.906s510.452-229.78 510.452-511.906-228.318-510.452-510.452-510.452-510.452 228.324-510.452 510.452zM550.716 523.53v47.99c0 15.998 10.182 29.084 18.902 29.084h75.626v93.072h-75.626c-62.534 0-113.428-55.262-113.428-123.61v-46.536h-75.626v-94.532h75.626v-229.774h94.528v229.78h94.528v94.526z" />
<glyph unicode="&#xe612;" d="M511.558 960c-282.524 0-511.558-229.228-511.558-512s229.032-512 511.558-512c282.524 0 511.568 229.228 511.568 512s-229.044 512-511.568 512zM775.918 264.14h-527.836v258.634l265.336-124.674 262.498 124.288v-258.25zM775.918 568.996l-262.63-124.352-265.204 124.548v64.432h527.836v-64.628z" />
<glyph unicode="&#xe613;" d="M819.2-64h-737.28c-45.22 0-81.92 36.658-81.92 81.92v737.28c0 45.22 36.7 81.92 81.92 81.92h40.96v-40.96c0-67.87 55.008-122.88 122.88-122.88s122.88 55.010 122.88 122.88v40.96h163.84v-40.96c0-67.87 55.010-122.88 122.88-122.88s122.88 55.010 122.88 122.88v40.96h40.96c45.22 0 81.92-36.7 81.92-81.92v-737.28c0-45.26-36.7-81.92-81.92-81.92zM819.2 591.36h-737.28v-573.44h737.28v573.44zM245.76 424.818h-81.92v81.92h81.92v-81.92zM409.6 424.818h-81.92v81.92h81.92v-81.92zM573.44 424.818h-81.92v81.92h81.92v-81.92zM737.28 424.818h-81.92v81.92h81.92v-81.92zM654.090 714.24c-44.524 0-80.65 36.086-80.65 80.65v84.46c0 44.524 36.126 80.65 80.65 80.65s80.65-36.126 80.65-80.65v-84.46c0-44.564-36.126-80.65-80.65-80.65zM244.49 714.24c-44.524 0-80.65 36.086-80.65 80.65v84.46c0 44.524 36.128 80.65 80.65 80.65s80.65-36.126 80.65-80.65v-84.46c0-44.564-36.128-80.65-80.65-80.65zM245.76 260.976h-81.92v81.92h81.92v-81.92zM409.6 260.976h-81.92v81.92h81.92v-81.92zM573.44 260.976h-81.92v81.92h81.92v-81.92zM737.28 260.976h-81.92v81.92h81.92v-81.92zM245.76 97.136h-81.92v81.92h81.92v-81.92zM409.6 97.136h-81.92v81.92h81.92v-81.92zM573.44 97.136h-81.92v81.92h81.92v-81.92zM737.28 97.136h-81.92v81.92h81.92v-81.92z" horiz-adv-x="902" />
<glyph unicode="&#xe614;" d="M0.618 450.1c0 281.022 228.874 509.9 509.9 509.9s508.45-228.88 508.45-509.9c0-281.026-227.428-508.448-508.45-508.448s-509.9 227.424-509.9 508.45zM299.026 392.156h36.214v-176.728h33.32v176.728h36.214v28.972h-105.75v-28.972zM332.338 690.558l44.908-137.61v-89.812h39.11v94.16l44.904 133.27h-39.11l-24.626-91.264h-1.444l-26.076 91.256h-37.666zM504.72 367.53h-30.424v-115.888c-2.896-2.896-5.792-5.792-8.694-7.244-4.346-2.896-7.242-2.896-8.688-2.896-2.896 0-5.792 0-7.242 1.452 0 1.446-1.444 4.346-1.444 8.688v115.888h-30.424v-127.472c0-8.694 1.452-14.486 5.792-20.284 2.896-4.346 8.694-5.792 15.93-5.792 5.792 0 11.59 1.452 17.382 4.346s11.584 7.244 17.382 14.486v-17.382h30.424v152.096zM464.164 505.142c0-13.036 4.346-24.626 13.036-33.314 8.694-8.694 20.284-13.040 36.214-13.040 14.486 0 27.52 4.346 36.216 13.040 8.688 7.242 13.034 18.832 13.034 33.314v86.916c0 11.59-4.346 23.18-13.034 30.424-8.694 8.694-20.284 13.040-34.77 13.040-15.93 0-27.522-4.346-37.66-11.59-8.694-8.694-13.036-18.832-13.036-31.868v-86.922zM501.824 492.108c-1.444 2.896-2.896 5.792-2.896 10.14v91.262c0 4.346 1.452 7.242 4.346 8.694 1.444 2.896 5.792 4.346 10.14 4.346s7.244-1.444 10.14-4.346c2.896-1.452 4.346-4.346 4.346-8.694v-91.264c0-4.346-1.452-7.242-4.346-10.14s-5.792-4.346-10.14-4.346-8.694 1.452-11.59 4.346zM571.358 366.080c-4.346-2.896-8.694-5.792-13.042-10.14v65.188h-30.418v-205.696h30.418v11.586c4.346-4.346 8.694-7.244 13.042-10.14 4.346-1.446 10.14-2.896 15.932-2.896 8.694 0 15.932 2.896 20.278 8.694 4.346 5.792 7.244 13.034 7.244 24.626v84.014c0 13.034-2.896 21.73-7.244 28.972-5.792 5.792-13.034 8.694-21.73 8.694-5.788-0.004-10.14-0.004-14.48-2.9zM558.318 340.004c1.452 1.446 4.346 2.896 5.792 4.346 2.896 0 4.346 1.452 7.244 1.452 4.346 0 7.244-1.452 8.694-4.346 2.896-2.896 2.896-5.792 2.896-11.586v-78.226c0-5.792 0-8.688-1.446-10.14-2.896-2.896-4.346-4.346-8.694-4.346-2.896 0-4.346 1.446-7.244 1.446-2.896 1.452-4.346 2.896-7.244 5.792v95.61zM590.192 490.662c0-10.144 2.896-17.382 5.792-21.728 4.346-5.792 10.14-8.694 18.832-8.694 5.792 0 13.034 2.896 18.832 5.792 7.244 4.346 14.486 8.688 20.278 15.93v-18.834h34.77v168.038h-34.77v-127.472c-2.896-4.346-7.244-7.242-10.14-8.694-4.346-2.896-7.244-4.346-10.14-4.346s-5.792 1.444-7.244 2.896c-1.452 1.444-1.452 4.346-1.452 8.688v128.928h-34.764v-140.508zM708.97 360.288c-7.244 7.244-17.382 11.59-31.868 11.59-13.034 0-24.626-4.346-33.318-13.034s-13.034-18.832-13.034-31.868v-68.082c0-14.486 4.346-26.076 11.59-34.77 8.688-8.688 18.832-13.034 31.868-13.034 15.932 0 27.52 4.346 34.764 11.59 7.244 8.694 11.59 20.284 11.59 36.216v7.238h-31.868v-7.244c0-8.694 0-14.486-2.896-17.382-1.452-1.446-5.792-2.896-10.144-2.896-4.346 0-8.688 1.452-10.14 4.346-2.896 2.896-2.896 8.688-2.896 15.932v28.972h57.944v39.11c0 14.486-4.342 24.626-11.59 33.318zM675.65 344.35c4.346 0 8.694-1.446 10.144-2.896 1.446-2.896 2.896-8.688 2.896-14.486v-14.486h-26.076v14.486c0 5.792 0 11.586 2.896 14.486 1.452 1.452 5.798 2.896 10.14 2.896z" />
<glyph unicode="&#xe615;" d="M468.348 762.72v-462.142l-174.854 174.794v-123.552l218.476-218.538 218.538 218.538v123.552l-174.794-174.794v462.142h-87.366zM511.968-64c-282.31 0-511.968 229.72-511.968 512.030s229.658 511.97 511.968 511.97c282.31 0 512.030-229.658 512.030-511.97s-229.72-512.030-512.030-512.030zM511.968 898.562c-248.396 0-450.532-202.134-450.532-450.532s202.134-450.53 450.532-450.53c248.458 0 450.592 202.134 450.592 450.532s-202.134 450.532-450.592 450.532z" />
<glyph unicode="&#xe616;" d="M437.006 141.838c0-75.068-46.39-134.392-177.758-139.176-76.984 43.786-141.49 106.952-186.908 182.866 23.69 58.496 97.692 103.046 182.316 102.114 24.022-0.252 46.41-4.114 66.744-10.7 55.908-38.866 101-63.152 112.324-107.448 2.114-8.964 3.282-18.206 3.282-27.656zM512 960c-147.94 0-281.196-62.77-374.666-163.098 36.934 20.452 80.538 32.638 126.902 32.638 67.068 0 256.438 0 256.438 0l-57.304-60.14h-67.31c47.496-27.212 72.752-83.248 72.752-145.012 0-56.692-31.416-102.38-75.78-137.058-43.28-33.802-51.492-47.966-51.492-76.734 0-24.542 51.722-61.098 75.5-78.936 82.818-62.112 99.578-101.184 99.578-178.87 0-78.726-68.936-157.104-185.866-183.742 56.348-21.338 117.426-33.048 181.248-33.048 282.77 0 512 229.23 512 512s-229.23 512-512 512zM768 576v-128h-64v128h-128v64h128v128h64v-128h128v-64h-128zM365.768 620.528c11.922-90.776-27.846-149.19-96.934-147.134-69.126 2.082-134.806 65.492-146.74 156.242-11.928 90.788 34.418 160.254 103.53 158.196 69.090-2.074 128.22-76.542 140.144-167.304zM220.886 317.932c-74.68 0-138.128-25.768-182.842-63.864-24.502 59.82-38.044 125.29-38.044 193.932 0 56.766 9.256 111.368 26.312 162.396 7.374-99.442 77.352-176.192 192.97-176.192 8.514 0 16.764 0.442 24.874 1.022-7.95-15.23-13.622-32.19-13.622-49.982 0-29.97 16.488-47.070 36.868-66.894-15.402 0-30.27-0.418-46.516-0.418z" />
<glyph unicode="&#xe617;" d="M512 960c-282.77 0-512-229.23-512-512s229.226-512 512-512c282.77 0 512 229.23 512 512s-229.23 512-512 512zM561.644 275.882c-46.52 3.614-66.042 26.656-102.504 48.808-20.060-105.176-44.564-206.016-117.14-258.686-22.404 158.968 32.894 278.364 58.57 405.114-43.784 73.706 5.27 222.034 97.62 185.474 113.626-44.948-98.4-274.008 43.932-302.616 148.62-29.868 209.288 257.858 117.142 351.424-133.158 135.106-387.598 3.080-356.31-190.356 7.614-47.292 56.472-61.638 19.524-126.902-85.22 18.892-110.65 86.102-107.376 175.712 5.268 146.674 131.784 249.364 258.686 263.566 160.484 17.964 311.106-58.908 331.906-209.876 23.412-170.39-72.448-354.93-244.050-341.662z" />
</font>
</defs>
</svg>
